<svg id="visual" viewBox="0 0 900 450" width="900" height="450" xmlns="http://www.w3.org/2000/svg" xmlns:xlink="http://www.w3.org/1999/xlink" version="1.1"><path d="M0 51L75 105L150 127L225 114L300 172L375 82L450 127L525 172L600 100L675 105L750 87L825 118L900 96L900 0L825 0L750 0L675 0L600 0L525 0L450 0L375 0L300 0L225 0L150 0L75 0L0 0Z" fill="#001916"></path><path d="M0 208L75 235L150 163L225 226L300 231L375 213L450 240L525 244L600 199L675 199L750 253L825 253L900 262L900 94L825 116L750 85L675 103L600 98L525 170L450 125L375 80L300 170L225 112L150 125L75 103L0 49Z" fill="#061e1a"></path><path d="M0 249L75 249L150 199L225 303L300 285L375 258L450 289L525 271L600 231L675 217L750 294L825 325L900 285L900 260L825 251L750 251L675 197L600 197L525 242L450 238L375 211L300 229L225 224L150 161L75 233L0 206Z" fill="#09231f"></path><path d="M0 339L75 366L150 303L225 343L300 303L375 307L450 397L525 361L600 330L675 334L750 330L825 379L900 316L900 283L825 323L750 292L675 215L600 229L525 269L450 287L375 256L300 283L225 301L150 197L75 247L0 247Z" fill="#0d2923"></path><path d="M0 361L75 397L150 343L225 397L300 343L375 397L450 424L525 397L600 343L675 397L750 370L825 411L900 388L900 314L825 377L750 328L675 332L600 328L525 359L450 395L375 305L300 301L225 341L150 301L75 364L0 337Z" fill="#102f27"></path><path d="M0 406L75 429L150 402L225 442L300 388L375 424L450 442L525 415L600 402L675 406L750 397L825 442L900 420L900 386L825 409L750 368L675 395L600 341L525 395L450 422L375 395L300 341L225 395L150 341L75 395L0 359Z" fill="#14342c"></path><path d="M0 451L75 451L150 451L225 451L300 451L375 451L450 451L525 451L600 451L675 451L750 451L825 451L900 451L900 418L825 440L750 395L675 404L600 400L525 413L450 440L375 422L300 386L225 440L150 400L75 427L0 404Z" fill="#183a30"></path></svg>